<?xml version="1.0" standalone="no"?>
<!DOCTYPE svg PUBLIC "-//W3C//DTD SVG 20010904//EN"
 "http://www.w3.org/TR/2001/REC-SVG-20010904/DTD/svg10.dtd">
<svg version="1.0" xmlns="http://www.w3.org/2000/svg"
 width="851.000000pt" height="453.000000pt" viewBox="0 0 851.000000 453.000000"
 preserveAspectRatio="xMidYMid meet">

<g transform="translate(0.000000,453.000000) scale(0.100000,-0.100000)"
fill="#000000" stroke="none">
<path d="M4230 4363 c-24 -9 -61 -46 -78 -78 -11 -21 -16 -54 -16 -110 1 -111
37 -216 126 -363 l20 -33 -93 -92 c-72 -71 -112 -101 -171 -130 -42 -21 -92
-40 -110 -43 -31 -4 -35 -1 -68 51 -62 99 -171 193 -259 223 -47 16 -136 15
-170 -2 -15 -8 -35 -33 -45 -54 -24 -53 -10 -97 45 -147 77 -69 180 -100 342
-100 l117 0 25 -65 c26 -68 49 -174 60 -273 5 -42 10 -57 20 -54 49 20 163 48
233 58 65 10 99 10 165 0 69 -10 183 -38 232 -57 9 -4 15 11 19 48 14 112 30
186 57 263 l29 80 118 0 c161 0 264 31 341 100 55 50 69 94 45 147 -10 21 -30
46 -45 54 -34 17 -123 18 -170 2 -89 -30 -196 -122 -259 -223 -33 -52 -37 -55
-68 -51 -64 9 -180 76 -258 149 -41 38 -83 81 -93 96 l-19 26 43 75 c64 109
98 217 99 315 0 87 -12 121 -58 164 -20 19 -39 25 -84 28 -31 1 -64 0 -72 -4z
m138 -30 c75 -46 80 -195 13 -363 -23 -58 -81 -160 -91 -160 -10 0 -68 102
-91 160 -30 78 -48 157 -48 215 -1 53 24 121 52 144 38 31 119 33 165 4z
m-752 -580 c72 -35 154 -110 203 -186 l41 -62 -37 -7 c-53 -9 -206 8 -280 33
-137 45 -204 133 -156 206 39 59 129 65 229 16z m1528 23 c125 -52 65 -188
-107 -245 -74 -25 -227 -42 -280 -33 l-37 7 41 62 c81 125 217 217 327 222 12
1 38 -5 56 -13z m-814 -53 c67 -90 199 -182 308 -218 28 -9 52 -18 52 -20 0
-3 -9 -28 -21 -57 -28 -70 -59 -212 -59 -270 l0 -47 -32 10 c-136 42 -146 43
-288 43 -142 0 -152 -1 -287 -43 l-33 -10 0 47 c0 58 -31 200 -59 270 -12 29
-21 54 -21 57 0 2 24 11 53 20 108 36 240 128 307 218 19 26 37 46 40 46 3 0
21 -20 40 -46z"/>
<path d="M223 2759 c16 -9 17 -37 17 -349 0 -312 -1 -340 -17 -349 -13 -7 35
-10 163 -11 l181 0 12 26 c15 34 9 40 -14 14 -16 -18 -31 -20 -147 -20 l-128
0 0 195 0 195 75 0 c60 0 76 -3 84 -17 8 -14 10 -8 10 27 0 35 -2 41 -10 28
-8 -15 -24 -18 -84 -18 l-75 0 0 135 0 135 113 0 c101 0 116 -2 132 -20 23
-25 28 -20 16 14 l-11 26 -167 0 c-119 -1 -163 -4 -150 -11z"/>
<path d="M782 2756 c-119 -39 -150 -161 -60 -242 34 -32 91 -58 203 -92 65
-20 113 -42 137 -62 102 -85 57 -233 -83 -274 -65 -20 -102 -20 -163 -2 -70
21 -114 60 -147 130 l-29 61 0 -53 c0 -28 3 -51 8 -50 4 1 28 -19 54 -45 74
-72 177 -94 296 -63 103 28 162 95 162 184 0 113 -52 163 -226 218 -178 56
-233 103 -217 188 12 60 106 103 203 92 83 -10 140 -43 168 -96 l22 -44 0 44
-1 45 -70 34 c-83 40 -184 51 -257 27z"/>
<path d="M1254 2748 c24 -34 24 -642 0 -676 l-15 -22 175 0 c163 0 176 1 186
19 17 32 11 42 -10 21 -19 -19 -31 -20 -148 -18 l-127 3 -3 193 -2 192 79 0
c67 0 80 -3 84 -17 3 -10 5 2 6 27 0 35 -2 41 -10 28 -8 -15 -24 -18 -85 -18
l-75 0 3 133 3 132 112 3 c102 2 114 1 133 -18 21 -21 23 -19 14 18 -6 22 -9
22 -171 22 l-164 0 15 -22z"/>
<path d="M1693 2759 c16 -9 17 -37 17 -349 0 -312 -1 -340 -17 -349 -14 -8 -9
-10 26 -11 42 0 43 1 27 18 -15 17 -16 51 -14 327 l3 309 210 -327 c207 -322
210 -326 244 -327 32 0 33 1 18 18 -15 17 -17 55 -17 342 0 287 2 325 17 342
15 17 14 18 -27 18 -38 0 -41 -2 -27 -12 16 -12 17 -41 15 -325 l-3 -312 -210
325 -209 324 -36 0 c-28 -1 -32 -2 -17 -11z"/>
<path d="M2559 2751 c-75 -24 -141 -73 -184 -135 -47 -69 -65 -126 -65 -206 0
-299 346 -466 581 -279 38 30 89 96 102 132 5 13 1 17 -17 17 -17 0 -26 -7
-30 -24 -9 -38 -94 -125 -150 -153 -75 -39 -179 -39 -258 0 -68 33 -121 90
-156 166 -38 80 -38 202 0 282 89 192 297 254 462 139 31 -22 56 -38 56 -36 0
19 -43 98 -48 89 -5 -8 -27 -5 -77 8 -88 23 -145 23 -216 0z"/>
<path d="M3114 2754 c14 -13 16 -59 16 -344 0 -285 -2 -331 -16 -344 -14 -15
-10 -16 40 -16 l56 0 -20 20 c-19 19 -20 33 -20 340 0 307 1 321 20 340 l20
20 -56 0 c-50 0 -54 -1 -40 -16z"/>
<path d="M3524 2757 c18 -13 18 -17 4 -53 -217 -554 -251 -636 -272 -644 -16
-7 -10 -9 28 -9 42 -1 47 1 34 12 -15 11 -13 21 23 111 22 54 53 118 70 142
48 71 149 118 226 107 28 -4 32 -13 91 -171 34 -92 62 -172 62 -179 0 -6 -6
-14 -12 -16 -7 -3 13 -6 46 -6 57 -1 58 -1 37 17 -14 11 -66 134 -150 357
l-129 340 -39 3 c-35 3 -36 2 -19 -11z m126 -309 c0 -6 -8 -7 -17 -4 -28 11
-118 -13 -168 -45 -26 -17 -45 -24 -42 -17 3 7 33 85 67 172 l63 159 48 -127
c27 -70 49 -132 49 -138z"/>
<path d="M4313 2760 c16 -10 17 -38 17 -350 0 -312 -1 -340 -17 -350 -13 -7
34 -10 172 -8 l191 3 66 33 c122 60 188 165 196 312 3 70 0 95 -18 142 -29 79
-96 150 -178 190 l-66 33 -191 3 c-138 2 -185 -1 -172 -8z m388 -41 c77 -36
133 -90 166 -157 22 -48 27 -70 27 -142 0 -74 -4 -93 -30 -150 -41 -87 -83
-133 -152 -167 -52 -26 -68 -28 -194 -31 l-138 -4 0 342 0 342 133 -4 c117 -3
138 -6 188 -29z"/>
<path d="M5024 2754 c14 -13 16 -59 16 -344 0 -285 -2 -331 -16 -344 -14 -15
1 -16 164 -16 178 0 180 0 186 23 9 36 7 38 -14 17 -18 -18 -33 -20 -144 -20
-104 0 -125 3 -130 16 -3 9 -6 89 -6 179 0 90 3 170 6 179 5 13 22 16 79 16
62 0 74 -3 78 -17 3 -10 5 2 5 27 0 25 -2 37 -5 27 -4 -15 -15 -17 -81 -15
l-77 3 -3 110 c-4 166 -13 155 123 155 106 0 115 -1 129 -22 12 -17 16 -19 16
-6 0 47 -3 48 -177 48 -149 0 -163 -1 -149 -16z"/>
<path d="M5893 2759 c16 -9 17 -37 17 -349 0 -312 -1 -340 -17 -349 -14 -8 -4
-10 42 -10 46 0 56 2 43 10 -16 9 -18 28 -18 174 l0 165 31 0 c54 0 116 -21
153 -52 21 -17 69 -77 107 -134 75 -113 121 -152 185 -160 l39 -4 -40 19 c-49
23 -81 57 -130 141 -54 91 -90 135 -133 162 l-37 23 43 7 c110 19 177 96 170
195 -5 54 -35 110 -72 133 -44 28 -123 40 -261 40 -100 -1 -135 -4 -122 -11z
m328 -35 c19 -11 44 -36 57 -55 20 -29 23 -44 20 -96 -7 -120 -57 -153 -225
-153 l-113 0 0 166 0 167 113 -5 c90 -3 121 -8 148 -24z"/>
<path d="M6530 2750 c19 -19 20 -33 20 -340 0 -307 -1 -321 -20 -340 l-20 -20
180 0 c167 0 180 1 190 19 17 33 11 46 -11 23 -19 -21 -27 -22 -147 -20 l-127
3 -3 193 -2 192 79 0 c67 0 80 -3 84 -17 3 -10 5 2 6 27 0 35 -2 41 -10 28 -8
-15 -24 -18 -85 -18 l-75 0 3 133 3 132 112 3 c102 2 114 1 133 -18 21 -21 27
-11 10 21 -10 18 -23 19 -175 19 l-165 0 20 -20z"/>
<path d="M6993 2759 c16 -9 17 -37 17 -349 0 -312 -1 -340 -17 -349 -14 -8 -4
-10 42 -10 46 0 56 2 43 10 -17 9 -18 37 -18 349 0 312 1 340 18 349 13 8 3
10 -43 10 -46 0 -56 -2 -42 -10z"/>
<path d="M7183 2752 c15 -17 17 -55 17 -342 0 -287 -2 -325 -17 -342 -15 -17
-14 -18 27 -18 38 0 41 2 27 13 -16 11 -17 40 -15 323 l3 311 210 -323 210
-324 35 0 c29 1 32 2 18 11 -17 9 -18 37 -18 349 0 312 1 340 18 349 13 8 8
10 -27 11 -42 0 -43 -1 -27 -18 15 -17 16 -51 14 -327 l-3 -309 -210 327
c-207 322 -210 326 -244 327 -32 0 -33 -1 -18 -18z"/>
<path d="M8014 2757 c19 -14 18 -19 -42 -173 -190 -486 -199 -509 -223 -521
-22 -12 -20 -13 26 -13 35 0 46 3 35 10 -13 8 -13 16 4 62 80 228 165 308 317
300 23 -2 30 -15 87 -166 65 -173 70 -191 50 -199 -7 -3 13 -6 46 -6 57 -1 58
-1 37 17 -13 11 -67 140 -150 357 l-129 340 -38 3 c-36 3 -38 2 -20 -11z m122
-294 c6 -23 4 -25 -11 -19 -30 11 -120 -13 -167 -44 -23 -16 -44 -28 -45 -26
-2 2 5 23 16 47 10 24 40 100 67 168 l48 124 43 -112 c23 -61 46 -123 49 -138z"/>
<path d="M7318 1896 c-100 -36 -207 -127 -248 -210 -40 -83 -11 -127 135 -201
102 -52 155 -101 155 -144 0 -77 -81 -164 -209 -224 -72 -34 -153 -46 -176
-27 -38 31 5 125 86 191 70 56 136 99 154 99 9 0 13 5 10 10 -17 28 -226 -133
-261 -202 -22 -42 -21 -88 2 -105 30 -23 119 -12 194 24 143 67 236 180 211
256 -16 47 -51 77 -156 132 -116 61 -145 88 -145 134 0 103 198 267 310 259
37 -3 45 -7 52 -30 13 -38 -13 -123 -57 -187 -37 -54 -43 -71 -22 -71 18 0 84
127 97 187 9 42 9 57 -4 81 -23 45 -59 53 -128 28z"/>
<path d="M5790 1826 c-3 -2 -38 -6 -79 -8 -52 -2 -76 -7 -79 -17 -4 -11 1 -12
19 -7 13 5 74 10 134 11 115 4 154 18 62 23 -29 2 -55 1 -57 -2z"/>
<path d="M5740 1763 c-7 -21 -40 -108 -75 -193 -34 -85 -74 -187 -89 -227 -29
-76 -65 -118 -124 -142 -18 -7 -32 -18 -32 -23 0 -9 30 -7 170 12 60 8 58 9
-30 5 -77 -4 -92 -2 -76 8 53 34 77 63 96 114 12 31 59 148 106 260 46 111 84
207 84 213 0 24 -19 7 -30 -27z"/>
<path d="M6761 1774 c-41 -34 -150 -199 -196 -296 -33 -69 -44 -82 -97 -118
-33 -22 -56 -40 -51 -40 6 0 29 14 52 31 24 17 44 29 46 27 1 -2 -2 -31 -8
-65 -19 -112 22 -143 114 -85 45 29 176 157 192 189 5 10 -25 -19 -67 -63 -81
-87 -156 -144 -191 -144 -49 0 -56 41 -25 141 16 53 30 74 81 124 118 116 219
255 219 305 0 28 -32 26 -69 -6z m55 -11 c-14 -59 -213 -309 -232 -291 -13 14
110 210 175 278 45 48 66 52 57 13z"/>
<path d="M4987 1739 c-28 -16 -92 -120 -123 -199 l-27 -69 -51 -11 c-50 -10
-135 -5 -326 20 -295 38 -637 50 -773 25 -86 -15 -114 -30 -96 -51 12 -15 39
-8 39 11 0 34 266 53 494 36 81 -6 251 -23 376 -37 169 -18 242 -23 278 -16
l49 9 -24 -75 c-13 -41 -22 -76 -20 -79 2 -2 16 14 30 36 30 45 86 91 110 91
29 0 21 -47 -10 -67 -36 -22 -83 -64 -83 -75 0 -22 39 -3 79 40 26 27 53 51
61 54 8 4 31 13 51 21 l35 16 -4 -30 c-2 -16 -1 -29 3 -29 4 0 35 25 68 55 59
52 62 54 69 32 5 -20 6 -20 7 6 1 35 -10 34 -56 -5 -82 -69 -78 -68 -54 -20
21 42 14 59 -11 24 -12 -17 -98 -62 -119 -62 -5 0 -9 11 -9 25 0 37 -38 33
-93 -9 l-45 -34 9 31 c5 18 9 33 9 34 0 1 37 39 83 85 84 84 127 152 127 201
0 29 -20 35 -53 16z m43 -19 c0 -36 -50 -120 -105 -178 -30 -30 -58 -53 -61
-49 -9 9 70 167 106 210 35 41 60 48 60 17z m-144 -406 c-15 -14 -31 -22 -35
-19 -3 4 7 18 23 31 15 14 31 22 35 19 3 -4 -7 -18 -23 -31z"/>
<path d="M6266 1710 c-37 -42 -78 -116 -116 -215 -27 -70 -83 -135 -117 -135
-26 0 -27 3 -27 79 -1 68 -16 74 -62 25 -28 -29 -138 -94 -160 -94 -2 0 -4 22
-4 50 0 38 4 52 19 60 27 14 36 13 22 -4 -9 -11 -9 -16 0 -21 13 -9 30 13 26
35 -4 22 -31 23 -57 2 -20 -16 -23 -27 -21 -73 1 -53 1 -54 -51 -102 -29 -27
-36 -35 -14 -17 21 17 41 28 45 25 10 -10 -68 -77 -81 -69 -7 4 -8 3 -4 -5 12
-18 65 18 89 62 16 27 39 47 79 68 32 16 60 29 64 29 4 0 4 -13 1 -30 -10 -46
10 -46 53 2 38 41 40 42 40 17 0 -51 47 -65 94 -28 l26 21 -10 -27 c-5 -14
-10 -36 -10 -48 0 -18 5 -14 25 19 41 69 135 119 135 71 0 -19 -19 -40 -67
-70 -24 -15 -43 -34 -43 -42 0 -28 31 -15 78 34 39 41 104 81 131 81 4 0 5
-17 3 -39 -2 -21 0 -41 5 -44 4 -3 7 11 5 31 -3 33 -1 38 27 49 33 12 50 38
34 54 -7 7 -20 2 -39 -14 -23 -19 -102 -57 -118 -57 -2 0 -7 11 -10 25 -8 33
-33 32 -87 -4 -24 -17 -45 -28 -47 -26 -11 11 32 76 72 109 113 92 193 256
126 256 -10 0 -34 -18 -54 -40z m69 20 c9 -14 -28 -93 -69 -148 -33 -45 -93
-98 -102 -90 -9 9 77 169 111 207 39 42 49 48 60 31z m-345 -269 c0 -25 -79
-113 -80 -88 0 27 53 107 72 107 4 0 8 -8 8 -19z m420 -20 c0 -5 -7 -12 -16
-15 -14 -5 -15 -4 -4 9 14 17 20 19 20 6z m-215 -121 c-16 -16 -34 -30 -39
-30 -12 1 49 60 61 60 4 0 -6 -13 -22 -30z"/>
<path d="M7793 1463 c-20 -21 -50 -44 -67 -51 -31 -12 -31 -12 -3 -7 27 6 28
4 22 -24 -10 -47 12 -47 55 1 39 42 40 42 40 17 0 -36 23 -53 61 -45 27 5 30
4 24 -14 -11 -35 13 -22 61 35 26 30 51 55 56 55 4 0 8 -20 8 -45 0 -55 16
-65 63 -37 l33 19 17 -28 c9 -16 21 -29 27 -29 5 0 1 9 -11 21 -11 11 -18 27
-15 36 3 8 6 19 6 24 0 5 6 9 14 9 25 0 60 36 53 54 -9 24 -39 6 -67 -38 -20
-34 -76 -76 -99 -76 -7 0 -11 21 -11 55 0 30 -3 55 -7 55 -4 0 -29 -21 -56
-47 l-49 -48 30 50 c17 27 28 54 25 59 -4 5 -11 1 -17 -9 -6 -10 -26 -36 -45
-57 -26 -30 -41 -38 -60 -36 -25 3 -26 6 -26 67 0 79 -13 87 -62 34z m47 0 c0
-10 -18 -38 -40 -63 -32 -37 -39 -41 -40 -24 0 23 54 104 70 104 6 0 10 -8 10
-17z m380 -17 c0 -2 -8 -10 -17 -17 -16 -13 -17 -12 -4 4 13 16 21 21 21 13z"/>
<path d="M7471 1449 c-44 -41 -55 -111 -20 -129 11 -7 23 -9 26 -7 2 3 -5 8
-16 12 -30 9 -29 62 2 74 29 12 61 47 52 60 -9 16 -18 14 -44 -10z"/>
<path d="M7626 1424 c-10 -14 -46 -44 -79 -65 -33 -21 -56 -39 -51 -39 5 0 33
16 62 35 47 32 52 34 52 15 0 -26 26 -26 42 0 7 11 18 20 24 20 6 0 9 12 6 30
-5 37 -30 39 -56 4z m28 -30 c-11 -16 -20 -22 -22 -14 -3 7 0 15 5 19 5 3 13
15 17 26 5 12 10 15 13 8 2 -6 -4 -24 -13 -39z"/>
<path d="M5245 1402 c-70 -48 -68 -48 -61 -11 5 31 4 30 -10 -8 -11 -29 -35
-57 -83 -98 -71 -59 -125 -118 -155 -170 -17 -29 -17 -29 1 -5 51 72 216 227
201 189 -19 -45 -16 -48 7 -7 18 35 44 60 93 93 37 25 62 45 57 45 -6 0 -28
-13 -50 -28z"/>
<path d="M8310 1384 c-54 -43 -61 -50 -35 -36 23 13 92 71 85 72 -3 0 -25 -16
-50 -36z"/>
<path d="M8225 1330 c-16 -7 -17 -9 -3 -9 9 -1 20 4 23 9 7 11 7 11 -20 0z"/>
<path d="M5075 1167 c-22 -39 -62 -96 -90 -126 -27 -31 -39 -47 -25 -36 13 11
34 31 46 45 28 31 118 179 113 184 -2 2 -22 -28 -44 -67z"/>
<path d="M5656 1173 c-6 -14 -5 -15 5 -6 7 7 10 15 7 18 -3 3 -9 -2 -12 -12z"/>
<path d="M4900 1059 c-6 -11 -10 -25 -8 -30 2 -5 8 4 15 21 13 34 9 40 -7 9z"/>
<path d="M4898 983 c6 -2 18 -2 25 0 6 3 1 5 -13 5 -14 0 -19 -2 -12 -5z"/>
<path d="M4856 857 c-56 -58 -140 -196 -172 -282 -10 -27 -25 -56 -34 -63 -8
-8 -10 -11 -3 -8 8 5 10 -9 7 -51 -5 -67 1 -61 11 10 5 36 14 55 37 75 56 49
188 215 214 268 26 54 29 94 6 102 -6 2 -36 -21 -66 -51z m70 0 c-4 -19 -28
-65 -55 -103 -54 -77 -171 -208 -178 -200 -3 3 23 58 58 122 60 110 160 237
175 221 3 -3 4 -21 0 -40z"/>
<path d="M5154 878 l-19 -23 21 18 c17 14 23 15 27 5 4 -8 6 -7 6 5 1 23 -12
21 -35 -5z"/>
<path d="M2027 809 c-19 -24 -23 -36 -14 -41 8 -5 7 -8 -4 -8 -9 0 -21 -11
-27 -25 -9 -19 -20 -25 -44 -26 -29 -2 -30 -3 -7 -6 l27 -4 -34 -86 c-18 -47
-39 -91 -45 -99 -6 -7 -12 -23 -14 -36 -1 -13 -10 -43 -19 -67 -18 -50 -21
-81 -6 -81 6 0 10 12 10 27 0 36 77 240 104 276 11 16 31 39 42 52 12 13 20
26 17 28 -2 3 7 28 22 57 32 64 28 85 -8 39z"/>
<path d="M2595 799 c-14 -22 -31 -51 -37 -65 -8 -17 -20 -24 -42 -25 -30 -2
-30 -2 -4 -6 l27 -4 -25 -57 c-70 -156 -119 -312 -97 -312 5 0 9 15 10 34 2
73 127 334 160 335 7 1 10 7 7 14 -3 8 7 33 20 58 43 75 26 100 -19 28z"/>
<path d="M5139 803 c-13 -16 -12 -17 4 -4 16 13 21 21 13 21 -2 0 -10 -8 -17
-17z"/>
<path d="M4331 784 c-20 -16 -51 -66 -81 -130 -28 -57 -50 -106 -50 -109 0 -2
9 3 20 12 11 10 20 26 20 35 0 28 68 157 97 184 32 30 40 30 46 2 5 -21 5 -21
4 1 -3 34 -20 36 -56 5z"/>
<path d="M5026 705 c-20 -36 -36 -69 -36 -74 0 -5 -7 -14 -15 -21 -8 -7 -15
-22 -15 -34 0 -12 -4 -16 -8 -11 -4 7 -21 -5 -42 -30 l-34 -40 38 35 c30 27
37 30 33 15 -41 -143 -47 -234 -17 -242 13 -4 13 -3 1 5 -30 21 13 231 63 305
13 19 21 39 18 43 -4 4 -2 4 4 1 6 -3 21 8 34 26 22 30 22 31 2 13 -27 -24
-28 -16 -2 34 33 65 15 46 -24 -25z"/>
<path d="M1737 713 c-18 -17 -2 -23 61 -21 52 1 57 2 22 5 -25 3 -49 8 -54 14
-12 11 -20 11 -29 2z"/>
<path d="M2317 713 c-18 -17 -2 -23 61 -21 52 1 57 2 22 5 -25 3 -49 8 -54 14
-12 11 -20 11 -29 2z"/>
<path d="M2143 703 c9 -2 25 -2 35 0 9 3 1 5 -18 5 -19 0 -27 -2 -17 -5z"/>
<path d="M2723 703 c9 -2 25 -2 35 0 9 3 1 5 -18 5 -19 0 -27 -2 -17 -5z"/>
<path d="M4301 643 c-30 -38 -42 -58 -29 -45 24 22 93 112 86 112 -2 0 -28
-30 -57 -67z"/>
<path d="M1485 600 c-3 -5 -1 -10 4 -10 6 0 11 5 11 10 0 6 -2 10 -4 10 -3 0
-8 -4 -11 -10z"/>
<path d="M3685 600 c-3 -5 -1 -10 4 -10 6 0 11 5 11 10 0 6 -2 10 -4 10 -3 0
-8 -4 -11 -10z"/>
<path d="M1341 581 c-12 -12 -21 -26 -21 -31 0 -6 -10 -15 -22 -20 -23 -10
-23 -10 2 -7 20 1 26 -3 28 -22 3 -17 -7 -34 -35 -60 -22 -20 -30 -28 -18 -18
29 23 38 21 24 -5 -7 -14 -7 -19 -1 -13 6 6 12 17 14 25 2 8 11 21 20 30 14
12 16 22 9 51 -8 36 1 69 19 69 6 0 10 -7 10 -16 0 -9 6 -14 13 -11 18 6 15
41 -5 45 -9 2 -26 -6 -37 -17z"/>
<path d="M3046 581 c-11 -13 -18 -35 -18 -65 0 -39 -4 -50 -31 -72 -19 -15
-23 -21 -10 -15 33 17 38 13 17 -12 -10 -13 -7 -10 9 5 22 24 27 37 27 81 0
48 12 77 32 77 4 0 5 -7 1 -16 -4 -12 -2 -15 8 -12 19 6 18 42 -2 46 -8 1 -23
-6 -33 -17z"/>
<path d="M3766 546 c-24 -25 -40 -46 -35 -46 5 0 9 -8 9 -17 0 -10 9 0 19 22
19 43 47 72 58 61 4 -3 -8 -28 -25 -54 l-33 -47 31 35 c30 34 30 34 30 9 0
-29 17 -49 40 -48 9 0 5 4 -8 10 -21 8 -23 14 -20 61 4 68 -10 71 -66 14z"/>
<path d="M5083 568 c-27 -30 -43 -62 -43 -87 0 -28 8 -26 42 6 22 21 31 25 37
15 5 -9 10 1 15 28 10 64 -12 80 -51 38z m37 -11 c0 -8 -16 -31 -35 -53 -27
-31 -34 -35 -35 -20 0 21 45 86 61 86 5 0 9 -6 9 -13z"/>
<path d="M6506 546 c-20 -23 -36 -50 -36 -59 0 -32 23 -30 51 4 24 29 29 31
30 14 1 -14 4 -11 9 10 22 86 0 98 -54 31z m44 12 c0 -15 -42 -78 -52 -78 -14
0 -9 22 13 56 21 34 39 44 39 22z"/>
<path d="M335 573 c-49 -5 -105 -23 -105 -33 0 -17 23 -23 34 -8 17 23 59 30
221 38 l150 7 -135 0 c-74 0 -148 -2 -165 -4z"/>
<path d="M3496 539 c-15 -22 -25 -43 -22 -46 2 -3 12 9 20 25 21 40 40 53 32
21 -7 -23 -7 -23 9 -4 8 10 14 24 12 29 -8 23 -26 14 -51 -25z"/>
<path d="M5411 559 c-11 -13 -21 -28 -21 -33 0 -6 10 0 21 14 20 24 20 24 14
3 -4 -13 -2 -23 3 -23 13 0 23 43 13 53 -5 5 -18 -2 -30 -14z"/>
<path d="M688 563 c18 -2 45 -2 60 0 15 2 0 4 -33 4 -33 0 -45 -2 -27 -4z"/>
<path d="M4401 548 c-7 -19 -5 -24 13 -26 34 -6 37 -16 21 -56 -27 -65 10 -78
65 -21 26 26 37 32 47 24 10 -9 13 -7 13 9 0 12 5 24 10 27 6 3 10 14 10 23 0
10 -23 -7 -62 -46 -79 -80 -93 -81 -66 -4 11 30 10 35 -5 47 -10 7 -15 19 -11
29 4 11 1 16 -10 16 -9 0 -20 -10 -25 -22z"/>
<path d="M6820 550 c0 -13 10 -24 25 -30 29 -11 29 -8 11 -51 -27 -67 10 -80
64 -24 19 19 40 35 47 35 7 0 13 7 13 15 0 8 6 15 13 15 17 0 53 38 44 46 -11
11 -39 -5 -31 -18 4 -7 3 -9 -1 -5 -5 4 -37 -20 -72 -55 -66 -65 -85 -69 -65
-15 16 45 15 67 -4 67 -11 0 -14 6 -9 20 5 16 2 20 -14 20 -14 0 -21 -6 -21
-20z"/>
<path d="M7415 525 c-34 -41 -39 -65 -12 -65 6 0 28 17 49 37 l38 37 2 -34 c1
-31 2 -30 7 10 10 75 -29 82 -84 15z m43 -2 c-15 -15 -30 -25 -32 -22 -10 9
25 49 42 49 13 0 11 -6 -10 -27z"/>
<path d="M8193 563 c9 -2 25 -2 35 0 9 3 1 5 -18 5 -19 0 -27 -2 -17 -5z"/>
<path d="M8320 555 c27 -14 36 -13 25 4 -3 6 -16 11 -28 11 -21 -1 -21 -1 3
-15z"/>
<path d="M803 553 c15 -2 37 -2 50 0 12 2 0 4 -28 4 -27 0 -38 -2 -22 -4z"/>
<path d="M1557 532 c-20 -20 -25 -34 -20 -52 8 -34 22 -50 42 -49 11 0 9 3 -6
9 -28 11 -32 58 -5 67 26 9 52 34 46 44 -10 16 -30 9 -57 -19z"/>
<path d="M1705 526 c-11 -19 -22 -33 -26 -30 -4 2 -11 -1 -15 -7 -5 -8 -3 -9
6 -4 9 6 10 0 5 -26 l-7 -34 55 54 56 54 3 -43 c3 -49 15 -58 43 -35 19 16 19
16 -2 6 -32 -16 -33 -15 -33 39 0 28 -3 50 -7 50 -4 0 -23 -15 -42 -32 -33
-31 -34 -31 -18 -6 9 15 17 32 17 38 0 21 -17 9 -35 -24z"/>
<path d="M2001 533 c-12 -14 -19 -28 -17 -30 9 -9 61 23 64 40 5 26 -24 21
-47 -10z"/>
<path d="M2576 538 c-17 -24 -22 -68 -7 -68 5 0 14 7 21 15 7 9 19 14 26 11 7
-3 17 8 23 27 l11 31 -33 -32 c-40 -39 -56 -42 -28 -6 12 15 21 31 21 35 0 17
-19 9 -34 -13z"/>
<path d="M2881 534 c-12 -15 -20 -38 -20 -53 2 -24 2 -24 6 -3 2 12 18 29 34
37 16 9 29 22 29 30 0 24 -27 17 -49 -11z"/>
<path d="M3179 553 c-1 -5 -1 -11 0 -15 0 -5 -2 -7 -6 -7 -22 4 -28 -5 -29
-44 -1 -23 1 -30 3 -14 3 17 15 33 34 42 30 16 40 45 14 45 -8 0 -16 -3 -16
-7z"/>
<path d="M3300 528 c-13 -18 -25 -48 -27 -67 -4 -35 -4 -35 17 -16 11 10 18
25 15 33 -3 7 4 26 15 42 36 51 17 58 -20 8z"/>
<path d="M5705 550 c-3 -5 -13 -6 -22 -3 -9 4 -19 -1 -25 -10 -5 -10 -17 -17
-26 -17 -14 0 -14 -2 -3 -9 11 -7 10 -14 -8 -40 -33 -46 -18 -38 39 21 53 55
71 59 46 9 -28 -53 -17 -55 31 -5 l47 49 7 -50 6 -50 1 53 c2 56 -8 65 -40 35
-17 -15 -18 -15 -18 5 0 22 -24 30 -35 12z"/>
<path d="M6165 530 c-28 -54 -15 -79 21 -39 l19 22 -25 -13 -25 -13 21 24 c32
37 37 49 20 49 -9 0 -22 -13 -31 -30z"/>
<path d="M6292 513 c-18 -24 -28 -42 -22 -38 7 5 9 -2 4 -22 -6 -26 -2 -24 49
26 l56 54 3 -43 c2 -25 8 -45 16 -46 7 -1 8 0 2 3 -5 2 -10 27 -10 54 0 27 -3
49 -7 49 -4 0 -25 -17 -46 -37 l-39 -38 21 35 c40 66 21 69 -27 3z"/>
<path d="M7238 530 c-28 -32 -47 -90 -29 -90 5 0 26 20 47 45 40 49 50 54 57
28 3 -11 5 -7 6 10 1 35 -6 34 -47 -5 l-34 -33 17 33 c22 44 15 49 -17 12z"/>
<path d="M8128 553 c6 -2 18 -2 25 0 6 3 1 5 -13 5 -14 0 -19 -2 -12 -5z"/>
<path d="M925 540 c28 -5 66 -8 85 -8 28 1 25 2 -15 8 -27 5 -66 8 -85 8 -28
-1 -25 -2 15 -8z"/>
<path d="M3352 534 c-12 -8 -27 -25 -33 -37 -10 -19 -8 -18 18 6 16 15 32 27
35 27 4 0 8 -19 10 -42 4 -49 16 -56 49 -28 l24 22 -25 -16 c-36 -24 -40 -21
-40 34 0 54 -4 58 -38 34z"/>
<path d="M5530 517 c-19 -18 -31 -29 -26 -24 15 11 26 8 26 -7 0 -26 17 -26
46 -1 21 18 24 25 13 25 -9 0 -20 -7 -23 -16 -4 -9 -9 -15 -11 -12 -3 3 1 17
9 32 9 18 16 23 19 14 4 -9 6 -7 6 5 1 26 -20 20 -59 -16z"/>
<path d="M5891 524 c-24 -30 -24 -33 -11 -54 8 -13 13 -11 36 11 16 16 22 29
16 33 -6 4 -18 -6 -26 -21 -8 -15 -15 -23 -16 -18 0 6 9 25 20 43 24 38 10 43
-19 6z"/>
<path d="M6218 533 c-15 -14 -15 -19 -2 -45 8 -15 20 -28 27 -28 8 0 8 3 -2 9
-10 6 -12 20 -8 45 7 41 7 41 -15 19z"/>
<path d="M8068 543 c6 -2 18 -2 25 0 6 3 1 5 -13 5 -14 0 -19 -2 -12 -5z"/>
<path d="M1430 524 c-14 -8 -17 -13 -7 -10 16 5 18 2 12 -24 -4 -20 -3 -30 5
-30 6 0 8 4 5 10 -3 5 1 20 9 32 28 40 19 48 -24 22z"/>
<path d="M3625 512 c-17 -15 -26 -24 -21 -19 17 12 24 8 29 -15 4 -22 4 -22 6
-2 0 12 8 27 16 34 16 13 20 30 8 30 -5 0 -22 -13 -38 -28z"/>
<path d="M4235 515 c-38 -30 -48 -31 -39 -2 3 12 3 19 0 16 -4 -4 -13 -31 -21
-59 l-14 -53 50 57 c66 73 114 76 76 4 -7 -14 -17 -23 -22 -22 -6 2 -21 -6
-35 -17 l-25 -21 27 16 c37 22 48 20 19 -4 -13 -11 -19 -20 -14 -20 5 0 26 18
46 40 31 35 35 44 27 65 -12 32 -37 32 -75 0z"/>
<path d="M7129 523 c-11 -12 -14 -26 -8 -43 6 -21 7 -22 8 -4 1 11 6 25 12 31
6 6 10 16 7 23 -2 7 -9 5 -19 -7z"/>
<path d="M8028 533 c7 -3 16 -2 19 1 4 3 -2 6 -13 5 -11 0 -14 -3 -6 -6z"/>
<path d="M1078 523 c12 -2 30 -2 40 0 9 3 -1 5 -23 4 -22 0 -30 -2 -17 -4z"/>
<path d="M2685 500 c-16 -17 -35 -28 -42 -26 -7 3 -13 1 -13 -4 0 -20 27 -9
60 25 19 19 32 35 29 35 -3 0 -18 -14 -34 -30z"/>
<path d="M3901 496 l-24 -31 28 27 c16 15 27 29 24 31 -2 3 -15 -10 -28 -27z"/>
<path d="M5204 499 c-20 -21 -36 -29 -51 -26 -12 2 -20 0 -17 -4 11 -18 41 -8
74 26 19 19 32 35 29 35 -3 0 -18 -14 -35 -31z"/>
<path d="M6640 505 c-13 -14 -19 -25 -13 -25 6 0 18 11 27 25 9 14 15 25 13
25 -2 0 -14 -11 -27 -25z"/>
<path d="M7978 523 c7 -3 16 -2 19 1 4 3 -2 6 -13 5 -11 0 -14 -3 -6 -6z"/>
<path d="M1167 513 c18 -2 50 -2 70 0 21 2 7 4 -32 4 -38 0 -55 -2 -38 -4z"/>
<path d="M5380 481 c0 -17 4 -32 8 -35 4 -2 6 11 4 30 -5 42 -12 45 -12 5z"/>
<path d="M3973 465 c-3 -9 -3 -18 0 -21 9 -9 27 6 27 22 0 19 -19 18 -27 -1z"/>
<path d="M5836 465 c-11 -8 -15 -15 -9 -15 6 0 16 7 23 15 16 19 11 19 -14 0z"/>
<path d="M6568 468 c6 -6 18 -8 28 -6 14 3 12 5 -9 10 -19 3 -25 2 -19 -4z"/>
<path d="M2050 450 c-9 -6 -10 -10 -3 -10 6 0 15 5 18 10 8 12 4 12 -15 0z"/>
<path d="M3488 448 c6 -6 18 -8 28 -6 14 3 12 5 -9 10 -19 3 -25 2 -19 -4z"/>
<path d="M1998 438 c5 -5 16 -8 23 -6 8 3 3 7 -10 11 -17 4 -21 3 -13 -5z"/>
<path d="M2888 433 c7 -3 16 -2 19 1 4 3 -2 6 -13 5 -11 0 -14 -3 -6 -6z"/>
<path d="M3168 433 c7 -3 16 -2 19 1 4 3 -2 6 -13 5 -11 0 -14 -3 -6 -6z"/>
<path d="M6988 433 c6 -2 18 -2 25 0 6 3 1 5 -13 5 -14 0 -19 -2 -12 -5z"/>
<path d="M7558 433 c18 -2 45 -2 60 0 15 2 0 4 -33 4 -33 0 -45 -2 -27 -4z"/>
<path d="M4774 408 l-19 -23 23 19 c12 11 22 21 22 23 0 8 -8 2 -26 -19z"/>
<path d="M2947 403 c-13 -12 -7 -23 11 -22 10 0 12 3 4 6 -6 2 -10 9 -6 14 6
10 0 12 -9 2z"/>
<path d="M1255 390 c-16 -7 -17 -9 -3 -9 9 -1 20 4 23 9 7 11 7 11 -20 0z"/>
</g>
</svg>
